<?xml version="1.0" encoding="utf-8"?>
<!-- Generator: Adobe Illustrator 25.4.1, SVG Export Plug-In . SVG Version: 6.00 Build 0)  -->
<svg version="1.1" id="Layer_1" xmlns="http://www.w3.org/2000/svg" xmlns:xlink="http://www.w3.org/1999/xlink" x="0px" y="0px"
	 viewBox="0 0 18.9 12.2" style="enable-background:new 0 0 18.9 12.2;" xml:space="preserve">
<style type="text/css">
	.st0{fill:#FFFFFF;}
</style>
<g id="Layer_2_00000136410156280972017380000014195464539045317818_">
	<path class="st0" d="M18.8,5.9c-0.5-0.8-1.1-1.5-1.7-2.2c-0.7-0.7-1.4-1.3-2.1-1.8C13.4,0.7,11.6,0.1,9.6,0c-2,0.1-3.9,0.7-5.5,1.8
		C3.3,2.4,2.5,3,1.8,3.7C1.2,4.4,0.6,5.1,0.1,5.9L0,6.1l0.1,0.2c1,1.6,2.3,3,3.9,4c1.6,1.2,3.5,1.9,5.4,2c2-0.1,3.8-0.8,5.4-2
		c1.6-1.1,2.9-2.4,4-4L19,6.1L18.8,5.9z M7.6,7c-1.3,0-2.4-1-2.4-2.3c0-1.3,1.1-2.3,2.4-2.3s2.4,1,2.4,2.3C9.9,5.9,8.9,7,7.6,7z
		 M2.5,7.8C1.9,7.3,1.3,6.7,0.7,6.1c0.5-0.6,1.1-1.2,1.7-1.7c0.7-0.6,1.4-1.1,2.2-1.5C5,2.6,5.4,2.4,5.8,2.2c-1,1-1.7,2.3-1.7,3.9
		c0,1.4,0.6,2.7,1.5,3.7C5.3,9.6,5,9.5,4.7,9.3C3.9,8.8,3.2,8.3,2.5,7.8z M16.3,7.7c-0.7,0.6-1.4,1.1-2.2,1.5
		c-0.1,0.1-0.2,0.1-0.3,0.2C14.6,8.5,15,7.3,15,6.1c0-1.4-0.6-2.7-1.5-3.7c0.3,0.1,0.6,0.3,0.8,0.5c0.7,0.5,1.5,1,2.1,1.5
		c0.6,0.5,1.2,1.1,1.7,1.7C17.6,6.7,17,7.2,16.3,7.7z"/>
</g>
</svg>
