<svg id="Question" xmlns="http://www.w3.org/2000/svg" viewBox="0 0 13.27 13.27"><defs><style>.cls-1{fill:#fff;}</style></defs><path class="cls-1" d="M13.62,17.13a.76.76,0,0,0,0,1.07.7.7,0,0,0,.53.23.72.72,0,0,0,.53-.23.76.76,0,0,0,0-1.07A.74.74,0,0,0,13.62,17.13Z" transform="translate(-7.54 -7.54)"/><path class="cls-1" d="M15.69,10.4a4,4,0,0,0-3,0A1.69,1.69,0,0,0,11.45,12v1.38h.18l1.11-.51V12c0-.18.18-.34.55-.49a2.71,2.71,0,0,1,1.82,0c.37.15.55.31.55.49v.78c0,.54-.43,1.08-1.28,1.61a2.17,2.17,0,0,0-1,2v.13h.21l1.1-.53v-.08a.72.72,0,0,1,.41-.61c1.21-.76,1.82-1.6,1.82-2.49V12A1.69,1.69,0,0,0,15.69,10.4Z" transform="translate(-7.54 -7.54)"/><path class="cls-1" d="M14.17,20.81a6.64,6.64,0,1,1,6.64-6.64A6.64,6.64,0,0,1,14.17,20.81Zm0-12.27a5.64,5.64,0,1,0,5.64,5.63A5.64,5.64,0,0,0,14.17,8.54Z" transform="translate(-7.54 -7.54)"/></svg>