<?xml version="1.0" encoding="utf-8"?>
<svg width="31px" height="24px" viewBox="0 0 31 24" version="1.1" xmlns:xlink="http://www.w3.org/1999/xlink" xmlns="http://www.w3.org/2000/svg">
  <desc>Created with Lunacy</desc>
  <g id="Mail" transform="translate(1 1)">
    <path d="M1.999 0L26.126 0Q26.2242 0 26.3219 0.00962573Q26.4197 0.0192515 26.516 0.0384102Q26.6123 0.057569 26.7063 0.0860763Q26.8003 0.114584 26.891 0.152165Q26.9817 0.189746 27.0683 0.236039Q27.1549 0.282333 27.2366 0.336892Q27.3182 0.391452 27.3942 0.453752Q27.4701 0.516052 27.5395 0.585494Q27.6089 0.654935 27.6712 0.730848Q27.7335 0.806761 27.7881 0.888415Q27.8427 0.970069 27.889 1.05668Q27.9353 1.14329 27.9728 1.23402Q28.0104 1.32474 28.0389 1.41872Q28.0674 1.5127 28.0866 1.60901Q28.1057 1.70533 28.1154 1.80306Q28.125 1.9008 28.125 1.999L28.125 19.1416Q28.125 19.2398 28.1154 19.3376Q28.1058 19.4353 28.0866 19.5316Q28.0674 19.6279 28.0389 19.7219Q28.0104 19.8159 27.9728 19.9066Q27.9353 19.9973 27.889 20.0839Q27.8427 20.1706 27.7881 20.2522Q27.7335 20.3339 27.6712 20.4098Q27.6089 20.4857 27.5395 20.5551Q27.4701 20.6246 27.3942 20.6869Q27.3182 20.7492 27.2366 20.8037Q27.1549 20.8583 27.0683 20.9046Q26.9817 20.9509 26.891 20.9885Q26.8003 21.026 26.7063 21.0545Q26.6123 21.0831 26.516 21.1022Q26.4197 21.1214 26.3219 21.131Q26.2242 21.1406 26.126 21.1406L1.999 21.1406Q1.9008 21.1406 1.80306 21.131Q1.70533 21.1214 1.60901 21.1022Q1.5127 21.0831 1.41872 21.0545Q1.32474 21.026 1.23402 20.9885Q1.14329 20.9509 1.05668 20.9046Q0.970069 20.8583 0.888415 20.8037Q0.806761 20.7492 0.730848 20.6869Q0.654935 20.6246 0.585494 20.5551Q0.516052 20.4857 0.453752 20.4098Q0.391452 20.3339 0.336892 20.2522Q0.282333 20.1706 0.236039 20.0839Q0.189746 19.9973 0.152165 19.9066Q0.114584 19.8159 0.0860763 19.7219Q0.057569 19.6279 0.0384102 19.5316Q0.0192515 19.4353 0.00962573 19.3376Q0 19.2398 0 19.1416L0 1.999Q0 1.9008 0.00962573 1.80306Q0.0192515 1.70533 0.0384102 1.60901Q0.057569 1.5127 0.0860763 1.41872Q0.114584 1.32474 0.152165 1.23402Q0.189746 1.14329 0.236039 1.05668Q0.282333 0.970069 0.336892 0.888415Q0.391452 0.806761 0.453752 0.730848Q0.516052 0.654935 0.585494 0.585494Q0.654935 0.516052 0.730848 0.453752Q0.806761 0.391452 0.888415 0.336892Q0.970069 0.282333 1.05668 0.236039Q1.14329 0.189746 1.23402 0.152165Q1.32474 0.114584 1.41872 0.0860763Q1.5127 0.057569 1.60901 0.0384102Q1.70533 0.0192515 1.80306 0.00962573Q1.9008 0 1.999 0L1.999 0Z" id="Rectangle" fill="none" stroke="#7D7D8C" stroke-width="2" />
    <path d="M27.1313 0L17.55 10.2375C16.5073 11.3203 15.0688 11.9321 13.5656 11.9321C12.0624 11.9321 10.6239 11.3203 9.58125 10.2375L0 0.00937521" transform="translate(0.4970703 0.7219238)" id="Shape" fill="none" stroke="#7D7D8C" stroke-width="2" />
  </g>
</svg>